PathFileType	4	(X/Y/Z)	D:\TRACE\spotREDO_2-26-24\spot_Both_Motion_3_7-v60.trc
DataRate	CameraRate	NumFrames	NumMarkers	Units	OrigDataRate	OrigDataStartFrame	OrigNumFrames
100.00	100.00	      39	9	mm	100.00	3501	      7000
Frame#	Time	front left toe			Front right toe			aft left toe			aft right toe			Arm			FL body			FR body			AL Body			AR Body			
		X1	Y1	Z1	X2	Y2	Z2	X3	Y3	Z3	X4	Y4	Z4	X5	Y5	Z5	X6	Y6	Z6	X7	Y7	Z7	X8	Y8	Z8	X9	Y9	Z9	

3501	35.000	-40.30946	26.08223	-430.49039	333.77115	28.50689	-511.81454	62.41592	15.00422	137.89355	403.62735	22.95412	49.67851	133.77174	698.91388	-779.10400	35.22670	581.41565	-514.37372	188.49495	585.42499	-544.95337	202.19099	556.97290	353.52997	347.49408	550.24634	327.41516	
3502	35.010	-40.17871	25.71569	-430.79962	334.10080	28.38535	-511.56357	62.55577	15.16795	137.53395	403.83560	23.14475	49.93523	133.22330	699.33630	-778.98682	33.75442	582.04376	-514.86725	187.10562	585.67688	-545.12756	199.82268	557.10254	353.23517	345.19708	550.45276	327.60669	
3503	35.020	-40.11451	25.66418	-431.30423	334.20596	28.05916	-511.70242	62.51966	15.18336	137.40337	403.92310	23.15965	49.94201	133.13875	699.41699	-778.96704	32.35764	582.57654	-515.12659	184.93834	585.92712	-545.49713	197.40590	557.41870	352.94019	342.56104	550.39313	327.46103	
3504	35.030	-40.18434	25.20860	-431.31696	333.93491	27.71755	-511.71762	62.27304	14.92668	137.37013	403.63074	23.16562	49.78193	133.43903	699.27332	-779.19653	30.88630	582.91809	-515.40796	184.39906	586.17816	-546.10522	195.86407	557.67938	352.81934	340.81824	550.15070	327.15292	
3505	35.040	-40.53414	25.01751	-431.57098	333.95325	27.64760	-511.85660	62.14301	14.74325	137.29475	403.41736	23.41681	49.83632	133.64139	699.42200	-779.67474	29.68993	583.04620	-515.84253	183.22333	585.94946	-545.52716	193.64043	559.20343	353.20410	339.37238	550.75885	327.08740	
3506	35.050	-40.67920	24.97654	-431.64789	333.81525	27.59690	-512.08881	62.10172	14.71951	137.11151	403.40735	23.59466	49.92048	133.54594	699.84424	-779.88306	28.63237	583.23767	-516.40851	182.37720	586.10303	-545.77893	191.92604	558.83990	352.38998	337.54727	551.06390	326.75809	
3507	35.060	-40.81385	24.63714	-431.72873	333.60336	27.33986	-512.33484	62.08440	14.74141	137.02080	403.38434	23.58764	49.81337	133.34012	700.06030	-780.00208	27.60377	583.40955	-516.94757	181.34247	586.07111	-546.32874	190.60088	558.96680	351.88654	336.40729	551.27985	326.59344	
3508	35.070	-40.76190	24.14829	-431.98254	333.55835	27.06151	-512.31873	62.22812	14.47932	137.29073	403.28714	23.65736	49.64394	132.99536	700.13013	-780.31091	26.61615	583.24774	-517.23260	180.26877	586.04694	-546.51263	189.07634	559.18475	351.38489	335.02100	551.22485	325.80988	
3509	35.080	-40.65024	23.92073	-432.08017	333.63501	26.82240	-512.27820	62.05822	14.60129	136.81073	403.20331	23.74685	49.46045	132.57861	700.24005	-780.55389	25.46217	582.91919	-517.97559	179.30479	585.94086	-547.24628	188.04761	559.29779	351.00003	333.94818	551.77600	325.51627	
3510	35.090	-40.72576	23.56467	-432.15143	333.75980	26.73788	-512.36914	61.97845	14.66071	136.59724	403.17078	23.72562	49.15054	132.13112	700.29047	-780.96313	24.72031	582.75702	-518.39172	178.39648	585.91809	-547.74689	187.23517	559.69086	350.79892	333.06079	551.80591	324.14041	
3511	35.100	-40.76222	23.29581	-432.21759	333.75311	26.56599	-512.41107	62.05817	14.81254	136.63162	403.17798	23.71955	48.94511	131.33864	700.38348	-781.30621	23.51393	583.01642	-519.51678	177.55409	585.91614	-548.29266	186.37167	559.45013	349.78006	332.31177	552.16370	323.66412	
3512	35.110	-40.96010	23.01261	-432.27658	333.78052	26.22065	-512.64539	62.10642	15.01190	136.45421	403.20660	23.77880	48.80309	130.85211	700.35504	-781.41638	22.93453	582.41296	-519.53815	176.77296	585.82977	-548.87189	185.53036	559.78510	349.32486	331.97977	552.26556	323.08197	
3513	35.120	-40.84317	22.36898	-432.25055	333.16971	26.01209	-513.09406	62.11446	15.09164	136.39639	403.19788	23.74814	48.59063	130.64960	700.14270	-781.42645	22.16948	581.93988	-520.11267	175.92773	585.40033	-549.32196	185.83745	559.19452	348.55963	331.01126	552.67566	322.41946	
3514	35.130	-40.89803	21.59397	-432.35483	333.74362	25.97766	-512.93744	62.23608	15.12121	136.31343	403.26791	23.79895	48.40731	130.37181	699.98749	-781.48950	21.36980	581.63190	-520.75165	175.15833	585.26691	-550.19366	185.32065	559.27985	347.75269	330.67807	552.62225	321.54538	
3515	35.140	-40.74865	21.51530	-432.59225	334.10849	25.75377	-512.96490	62.33757	15.14879	136.17784	403.35776	23.81445	48.31661	130.50946	699.69336	-781.47870	20.75105	581.23291	-521.25983	174.40201	584.98804	-550.82227	185.10080	559.49023	347.05850	330.38943	552.94794	320.94525	
3516	35.150	-40.79147	21.23307	-432.63507	334.08466	25.17833	-513.27911	62.32418	15.15703	136.03409	403.48615	23.84483	48.23747	130.70148	699.29041	-781.52527	20.09614	580.88458	-521.91254	173.21057	585.13220	-552.00891	184.88913	559.56775	346.56815	329.96893	553.10809	320.08063	
3517	35.160	-40.80144	21.07361	-432.66699	333.91058	24.82339	-513.50458	62.28741	15.32197	135.98537	403.57535	23.83315	48.18245	130.77715	699.00006	-781.57397	19.61872	580.57910	-522.62018	172.92464	585.15271	-552.95209	184.41298	559.59998	345.79520	329.66937	553.31256	319.72049	
3518	35.170	-40.86911	20.86206	-432.80276	334.00742	24.65630	-513.62750	62.31792	15.39583	135.97774	403.69080	23.82787	48.17684	130.91586	698.88306	-781.61334	19.15514	580.45544	-523.17847	172.43533	584.83740	-553.39807	184.00774	559.65411	345.13962	329.57410	553.22968	318.95477	
3519	35.180	-40.85122	20.53139	-433.02191	332.59879	24.04321	-514.28278	62.25786	15.52018	135.88885	403.67603	23.84663	48.00141	131.05725	698.83911	-781.61310	18.96529	580.16699	-523.89447	172.71524	584.25745	-553.22791	183.56754	559.67047	344.33197	329.17969	553.28705	318.23599	
3520	35.190	-40.74467	19.99968	-433.31229	334.03784	23.99652	-513.77386	62.35714	15.38438	135.83427	403.80350	23.90747	47.88866	131.33827	698.77423	-781.70502	18.98927	579.95325	-524.72717	172.61435	584.10205	-554.27203	183.10541	559.51294	343.71863	328.33746	553.22931	318.29193	
3521	35.200	-40.54675	19.72743	-433.51105	333.67743	23.61535	-513.93323	62.31263	15.43839	135.69661	403.84573	23.91302	47.76190	131.60701	698.89819	-781.74146	18.89953	579.97327	-525.67963	172.67039	584.00757	-555.01630	182.52007	559.43573	343.07245	327.98648	553.09436	317.81418	
3522	35.210	-40.41263	19.63039	-433.64371	334.24341	22.94408	-514.03894	62.29776	15.51468	135.46851	403.90189	23.95466	47.60851	131.90218	698.96967	-781.89142	19.20301	579.94092	-526.28845	172.37852	584.24603	-556.16302	181.85666	559.26831	342.31107	327.31699	552.96484	316.38760	
3523	35.220	-40.35557	19.48125	-433.69370	334.38495	22.64935	-514.05511	62.32986	15.58327	135.30359	403.90024	23.98150	47.49788	132.00439	698.97205	-782.14026	19.68140	579.78772	-527.12219	173.47641	583.77716	-556.02899	181.43314	559.20660	341.72488	326.85321	553.08942	316.68491	
3524	35.230	-40.24391	19.37262	-433.92566	334.52429	22.32683	-514.24762	62.37333	15.50602	135.17671	403.87766	24.03288	47.41929	131.71545	698.99854	-782.38525	20.10821	579.67957	-528.01868	173.93118	583.56311	-557.10052	180.58238	560.15479	341.66882	326.30322	553.22357	316.23367	
3525	35.240	-40.02319	18.99676	-434.31241	334.16010	21.83969	-514.58112	62.30327	15.62897	134.95767	403.86438	24.23215	47.29195	131.16888	699.23010	-782.59412	20.97773	579.17932	-529.14716	174.28888	583.26233	-558.44122	179.89517	560.68317	340.86923	325.50992	553.46161	315.78378	
3526	35.250	-39.87943	18.51394	-434.52362	334.76773	20.87338	-514.56311	62.25973	15.71798	134.84061	403.65640	24.54555	47.35072	128.76775	700.48212	-782.67212	22.06330	578.43335	-530.12366	175.37238	582.26788	-559.14459	179.26619	561.47864	340.08438	324.92307	553.94403	315.11127	
3527	35.260	-39.97596	18.28400	-434.71497	335.12448	20.19367	-514.57477	62.17148	15.86445	134.79907	404.27988	25.19081	47.83588	126.39893	701.95618	-781.86829	23.07686	577.87048	-531.29474	176.72363	581.32941	-559.93475	178.68701	561.67102	339.02121	324.65128	554.13116	314.11163	
3528	35.270	-39.73723	17.99465	-435.06418	335.44403	19.66354	-514.56250	62.09517	16.01235	134.58490	404.12146	25.07851	47.73026	122.62911	704.23749	-781.02185	24.33246	577.38696	-532.44666	178.10002	580.29242	-560.60712	178.47519	562.21619	338.22488	324.62030	554.22070	314.29489	
3529	35.280	-39.64507	18.00679	-435.44586	335.55704	18.88755	-514.56836	62.20921	15.95623	134.16649	404.01068	25.06887	47.49340	118.75635	707.36621	-778.64032	25.48098	576.98730	-533.33936	179.03770	579.65228	-561.46344	178.60660	562.52277	337.38205	324.48343	554.36749	313.50076	
3530	35.290	-39.44149	17.94023	-435.65216	336.01007	18.83649	-514.56158	62.36983	16.03671	134.01752	404.10596	24.92539	47.42645	114.78200	710.90802	-775.74261	26.67029	576.57697	-534.22174	180.39815	579.09760	-562.38745	178.79874	562.55493	336.50745	324.65778	554.11499	312.62531	
3531	35.300	-39.47404	17.66690	-435.81549	335.77713	18.55135	-514.68512	62.51134	16.08457	133.87738	403.78751	24.52022	47.10808	109.99981	714.68469	-771.94659	27.57398	576.28082	-535.14331	181.31039	578.74768	-563.15820	180.01205	562.73651	336.04230	325.89032	553.95654	311.28668	
3532	35.310	-39.13300	17.25623	-436.06909	335.27896	18.00344	-515.32288	62.75957	16.14803	133.81760	404.08578	24.37742	47.10205	104.50229	718.79694	-767.48248	27.98835	576.21918	-535.79095	181.78409	578.66986	-563.97943	180.70564	562.44916	334.92252	327.69855	553.42218	309.70486	
3533	35.320	-38.99073	16.94100	-436.01965	335.17371	17.68909	-515.57886	62.89981	16.50394	133.77068	404.37512	24.12590	46.87250	100.99596	722.39563	-763.10028	28.14912	576.28741	-536.18396	181.86287	578.89020	-564.79669	182.79265	562.40009	334.58228	328.45258	553.70087	309.56396	
3534	35.330	-38.96469	16.29388	-435.84216	335.23166	17.55328	-515.80463	63.14043	16.78199	133.67101	404.71027	24.11830	46.65709	97.65529	725.37512	-758.16187	27.82417	576.65088	-536.33905	181.51099	579.59619	-565.51984	184.82468	561.81262	334.10602	330.37476	553.36920	309.11572	
3535	35.340	-39.08785	15.98054	-435.79883	334.92816	17.68556	-516.06708	63.28822	17.15904	133.60481	405.10303	23.89257	46.27909	95.69868	727.20471	-753.57214	27.21050	577.46503	-536.39563	180.84592	580.35516	-565.78723	186.64709	560.90033	333.29227	332.52118	552.87561	308.19421	
3536	35.350	-39.38485	15.69897	-435.68771	334.21176	17.70079	-516.51868	63.71242	17.33382	133.55003	405.47244	23.52382	45.91288	94.24500	728.23718	-749.32489	26.61909	578.12512	-536.03082	179.89619	581.45148	-565.97015	189.46628	560.21771	333.10730	334.71832	551.98389	307.36612	
3537	35.360	-39.46923	15.21842	-435.34476	333.76007	17.51593	-517.02112	64.20436	17.38750	133.74916	405.68512	23.49211	45.70762	94.59298	728.03815	-745.49249	25.68641	579.09479	-535.35248	178.70508	582.80286	-566.01233	191.52856	559.07465	332.69504	337.10776	551.13135	306.59775	
3538	35.370	-39.60550	14.67812	-435.13037	334.29712	17.45351	-516.98999	64.51579	17.41798	133.87225	405.76065	23.48068	45.55730	95.58508	726.86011	-742.40161	24.97361	580.17505	-534.81580	177.77460	583.96008	-565.84607	194.12402	557.69165	332.53870	339.11691	550.62909	306.26904	
3539	35.380	-39.67615	14.43629	-435.09329	333.99258	17.15501	-517.47247	64.71485	17.51375	133.93544	405.79651	23.38547	45.44762	96.90324	725.31201	-740.14203	24.38746	581.44958	-534.28802	177.48537	585.26349	-565.67236	195.65727	557.93127	333.12003	340.94974	549.79504	305.04968	
